<svg width="24" height="26" viewBox="0 0 24 26" fill="none" xmlns="http://www.w3.org/2000/svg">
<path fill-rule="evenodd" clip-rule="evenodd" d="M23.5 9.81549H18.1915V11.0625C18.1915 12.1655 17.2945 13.0625 16.1915 13.0625C15.089 13.0625 14.1915 12.1655 14.1915 11.0625V9.81549H9.86699V11.0625C9.86699 12.1655 8.96999 13.0625 7.86699 13.0625C6.76399 13.0625 5.86699 12.1655 5.86699 11.0625V9.81549H0.499985C0.223985 9.81549 0.0534854 10.033 0.118985 10.301L3.61749 24.55C3.82899 25.351 4.67149 26 5.49999 26H18.5C19.329 26 20.171 25.3505 20.3835 24.55L23.8815 10.301C23.9465 10.0325 23.7765 9.81549 23.5 9.81549Z" fill="white"/>
<path fill-rule="evenodd" clip-rule="evenodd" d="M7.9995 10.0625C8.5515 10.0625 8.9995 9.6145 8.9995 9.0625V5.1625C8.9995 3.419 10.418 2 12.162 2C13.9055 2 15.3245 3.419 15.3245 5.1625V9.0625C15.3245 9.6145 15.7725 10.0625 16.3245 10.0625C16.8765 10.0625 17.3245 9.6145 17.3245 9.0625V5.1625C17.3245 2.316 15.0085 0 12.162 0C9.316 0 7 2.316 7 5.1625V9.0625C6.9995 9.6145 7.4475 10.0625 7.9995 10.0625Z" fill="white"/>
</svg>
